<svg width="27" height="23" viewBox="0 0 27 23" fill="none" xmlns="http://www.w3.org/2000/svg">
<path d="M15.1199 18.646C14.9375 18.2057 14.9375 17.6476 14.9375 16.5312C14.9375 15.4149 14.9375 14.8568 15.1199 14.4165C15.363 13.8294 15.8294 13.363 16.4165 13.1199C16.8568 12.9375 17.4149 12.9375 18.5312 12.9375C19.6476 12.9375 20.2057 12.9375 20.646 13.1199C21.2331 13.363 21.6995 13.8294 21.9426 14.4165C22.125 14.8568 22.125 15.4149 22.125 16.5312C22.125 17.6476 22.125 18.2057 21.9426 18.646C21.6995 19.2331 21.2331 19.6995 20.646 19.9426C20.2057 20.125 19.6476 20.125 18.5312 20.125C17.4149 20.125 16.8568 20.125 16.4165 19.9426C15.8294 19.6995 15.363 19.2331 15.1199 18.646Z" stroke="#141B34" stroke-width="1.5" stroke-linecap="square" stroke-linejoin="round"/>
<path d="M15.1199 8.58351C14.9375 8.14323 14.9375 7.58506 14.9375 6.46875C14.9375 5.35244 14.9375 4.79427 15.1199 4.35399C15.363 3.76694 15.8294 3.30054 16.4165 3.05737C16.8568 2.875 17.4149 2.875 18.5312 2.875C19.6476 2.875 20.2057 2.875 20.646 3.05737C21.2331 3.30054 21.6995 3.76694 21.9426 4.35399C22.125 4.79427 22.125 5.35244 22.125 6.46875C22.125 7.58506 22.125 8.14323 21.9426 8.58351C21.6995 9.17056 21.2331 9.637 20.646 9.88013C20.2057 10.0625 19.6476 10.0625 18.5312 10.0625C17.4149 10.0625 16.8568 10.0625 16.4165 9.88013C15.8294 9.637 15.363 9.17056 15.1199 8.58351Z" stroke="#141B34" stroke-width="1.5" stroke-linecap="square" stroke-linejoin="round"/>
<path d="M5.05737 18.646C4.875 18.2057 4.875 17.6476 4.875 16.5312C4.875 15.4149 4.875 14.8568 5.05737 14.4165C5.30054 13.8294 5.76694 13.363 6.35399 13.1199C6.79427 12.9375 7.35244 12.9375 8.46875 12.9375C9.58506 12.9375 10.1432 12.9375 10.5835 13.1199C11.1706 13.363 11.637 13.8294 11.8801 14.4165C12.0625 14.8568 12.0625 15.4149 12.0625 16.5312C12.0625 17.6476 12.0625 18.2057 11.8801 18.646C11.637 19.2331 11.1706 19.6995 10.5835 19.9426C10.1432 20.125 9.58506 20.125 8.46875 20.125C7.35244 20.125 6.79427 20.125 6.35399 19.9426C5.76694 19.6995 5.30054 19.2331 5.05737 18.646Z" stroke="#141B34" stroke-width="1.5" stroke-linecap="square" stroke-linejoin="round"/>
<path d="M5.05737 8.58351C4.875 8.14323 4.875 7.58506 4.875 6.46875C4.875 5.35244 4.875 4.79427 5.05737 4.35399C5.30054 3.76694 5.76694 3.30054 6.35399 3.05737C6.79427 2.875 7.35244 2.875 8.46875 2.875C9.58506 2.875 10.1432 2.875 10.5835 3.05737C11.1706 3.30054 11.637 3.76694 11.8801 4.35399C12.0625 4.79427 12.0625 5.35244 12.0625 6.46875C12.0625 7.58506 12.0625 8.14323 11.8801 8.58351C11.637 9.17056 11.1706 9.637 10.5835 9.88013C10.1432 10.0625 9.58506 10.0625 8.46875 10.0625C7.35244 10.0625 6.79427 10.0625 6.35399 9.88013C5.76694 9.637 5.30054 9.17056 5.05737 8.58351Z" stroke="#141B34" stroke-width="1.5" stroke-linecap="square" stroke-linejoin="round"/>
</svg>
