<svg width="20" height="20" viewBox="0 0 20 20" fill="none" xmlns="http://www.w3.org/2000/svg">
<path d="M13.6854 3.83744L14.5103 3.01253C15.1937 2.32916 16.3017 2.32916 16.9851 3.01253C17.6684 3.69591 17.6684 4.80388 16.9851 5.48726L16.1601 6.31217M13.6854 3.83744L8.1365 9.38632C7.71361 9.80928 7.41362 10.3391 7.26858 10.9193L6.66533 13.3323L9.07834 12.729C9.65853 12.584 10.1883 12.284 10.6113 11.8611L16.1601 6.31217M13.6854 3.83744L16.1601 6.31217" stroke="#004829" stroke-width="1.21375" stroke-linejoin="round"/>
<path d="M15.8299 11.249C15.8299 13.9883 15.8299 15.3579 15.0734 16.2798C14.9349 16.4485 14.7802 16.6033 14.6114 16.7418C13.6896 17.4984 12.3199 17.4984 9.58054 17.4984H9.164C6.02161 17.4984 4.45043 17.4984 3.47422 16.5221C2.49801 15.546 2.49799 13.9747 2.49799 10.8323V10.4157C2.49799 7.67642 2.49799 6.30678 3.25453 5.38491C3.39304 5.21614 3.5478 5.06138 3.71657 4.92287C4.63844 4.16633 6.00808 4.16633 8.74737 4.16633" stroke="#004829" stroke-width="1.21375" stroke-linecap="round" stroke-linejoin="round"/>
</svg>
